<svg width="35" height="32" viewBox="0 0 35 32" fill="none" xmlns="http://www.w3.org/2000/svg">
<path d="M32.437 4.57898H29.037V6.66998H32.173V29.67H2.90297V6.66998H6.03897V4.57898H2.64197C2.39757 4.58302 2.15636 4.63516 1.93211 4.73243C1.70787 4.82971 1.50498 4.9702 1.33505 5.1459C1.16511 5.3216 1.03145 5.52905 0.941696 5.75641C0.851946 5.98377 0.807864 6.22658 0.811969 6.47098V29.871C0.807864 30.1154 0.851946 30.3582 0.941696 30.5856C1.03145 30.8129 1.16511 31.0204 1.33505 31.1961C1.50498 31.3718 1.70787 31.5123 1.93211 31.6095C2.15636 31.7068 2.39757 31.7589 2.64197 31.763H32.442C32.6864 31.7589 32.9276 31.7068 33.1518 31.6095C33.3761 31.5123 33.579 31.3718 33.7489 31.1961C33.9188 31.0204 34.0525 30.8129 34.1422 30.5856C34.232 30.3582 34.2761 30.1154 34.272 29.871V6.47098C34.2761 6.22617 34.2318 5.98295 34.1418 5.75527C34.0517 5.52759 33.9176 5.31991 33.7471 5.14415C33.5767 4.96839 33.3732 4.828 33.1484 4.73101C32.9235 4.63403 32.6818 4.58237 32.437 4.57898Z" fill="white"/>
<path d="M7.08496 12.942H9.17596V15.033H7.08496V12.942Z" fill="white"/>
<path d="M13.358 12.942H15.449V15.033H13.358V12.942Z" fill="white"/>
<path d="M19.63 12.942H21.721V15.033H19.63V12.942Z" fill="white"/>
<path d="M25.903 12.942H27.994V15.033H25.903V12.942Z" fill="white"/>
<path d="M7.08496 18.169H9.17596V20.26H7.08496V18.169Z" fill="white"/>
<path d="M13.358 18.169H15.449V20.26H13.358V18.169Z" fill="white"/>
<path d="M19.63 18.169H21.721V20.26H19.63V18.169Z" fill="white"/>
<path d="M25.903 18.169H27.994V20.26H25.903V18.169Z" fill="white"/>
<path d="M7.08496 23.397H9.17596V25.488H7.08496V23.397Z" fill="white"/>
<path d="M13.358 23.397H15.449V25.488H13.358V23.397Z" fill="white"/>
<path d="M19.63 23.397H21.721V25.488H19.63V23.397Z" fill="white"/>
<path d="M25.903 23.397H27.994V25.488H25.903V23.397Z" fill="white"/>
<path d="M9.17497 8.75997C9.45213 8.75997 9.71793 8.64987 9.9139 8.4539C10.1099 8.25792 10.22 7.99212 10.22 7.71497V1.44197C10.22 1.16482 10.1099 0.899022 9.9139 0.703046C9.71793 0.507071 9.45213 0.396973 9.17497 0.396973C8.89782 0.396973 8.63202 0.507071 8.43605 0.703046C8.24007 0.899022 8.12997 1.16482 8.12997 1.44197V7.71497C8.12997 7.99212 8.24007 8.25792 8.43605 8.4539C8.63202 8.64987 8.89782 8.75997 9.17497 8.75997Z" fill="white"/>
<path d="M25.902 8.75998C26.1791 8.75998 26.4449 8.64989 26.6409 8.45391C26.8369 8.25794 26.947 7.99214 26.947 7.71498V1.44198C26.947 1.1647 26.8368 0.898773 26.6407 0.702704C26.4447 0.506635 26.1787 0.396484 25.9015 0.396484C25.6242 0.396484 25.3582 0.506635 25.1622 0.702704C24.9661 0.898773 24.856 1.1647 24.856 1.44198V7.71498C24.856 7.8523 24.883 7.98827 24.9356 8.11512C24.9882 8.24197 25.0652 8.35721 25.1624 8.45426C25.2595 8.55132 25.3748 8.62827 25.5017 8.68073C25.6286 8.73318 25.7646 8.76012 25.902 8.75998Z" fill="white"/>
<path d="M12.312 4.57898H22.766V6.66998H12.312V4.57898Z" fill="white"/>
</svg>
