<svg width="14" height="17" viewBox="0 0 14 17" fill="none" xmlns="http://www.w3.org/2000/svg">
<path d="M12.164 1.77104C9.197 0.0370424 3.11498 1.19605 0.513977 2.72405C1.33798 7.11105 2.20899 14.31 2.71399 15.864C2.76339 16.0199 2.856 16.1586 2.98102 16.264L3.00098 16.28C3.15203 16.399 3.32883 16.481 3.51721 16.5196C3.70559 16.5581 3.90035 16.5521 4.086 16.502C6.45 15.888 9.63401 12.863 11.864 9.64005C12.8066 8.2769 13.4479 6.72851 13.745 5.09805C13.8421 4.44915 13.7435 3.78605 13.4619 3.19344C13.1803 2.60082 12.7284 2.1056 12.164 1.77104ZM6.37 12.929C5.8604 12.9295 5.354 12.8485 4.87 12.689C3.91395 12.235 3.15149 11.4544 2.72003 10.4879C2.28857 9.52146 2.21649 8.43268 2.51672 7.41776C2.81695 6.40283 3.4698 5.52851 4.3576 4.95232C5.24541 4.37612 6.30979 4.13593 7.35901 4.27504C7.43834 4.28571 7.51703 4.29838 7.59503 4.31305C7.82008 4.35217 8.02868 4.45649 8.19501 4.61305C8.27215 4.67707 8.33581 4.75573 8.38239 4.8445C8.42896 4.93327 8.45754 5.03039 8.46637 5.13025C8.4752 5.23011 8.46417 5.33072 8.4339 5.42629C8.40363 5.52185 8.35469 5.61048 8.28998 5.68704C8.27264 5.70838 8.25401 5.72871 8.23401 5.74805C8.12001 5.86122 7.97659 5.9402 7.82001 5.97604C7.73879 5.99365 7.65497 5.99568 7.573 5.98204C7.49 5.97004 7.40902 5.94704 7.32202 5.92804C7.14647 5.88756 6.96786 5.86181 6.78802 5.85104C6.72302 5.85104 6.65801 5.84404 6.58801 5.84404C5.87449 5.84282 5.18065 6.07791 4.61481 6.51259C4.04897 6.94727 3.64295 7.55708 3.46021 8.24681C3.27746 8.93654 3.32829 9.66737 3.60468 10.3252C3.88106 10.983 4.36745 11.5308 4.98798 11.883C5.67793 12.2756 6.47886 12.4275 7.26465 12.3149C8.05043 12.2022 8.77646 11.8314 9.32831 11.2607C9.88015 10.6901 10.2265 9.95211 10.3128 9.163C10.3991 8.37388 10.2204 7.57846 9.80499 6.90204C10.3445 7.52878 10.6433 8.3271 10.648 9.15405C10.5775 10.2215 10.088 11.2178 9.28607 11.9258C8.48418 12.6339 7.43494 12.9963 6.367 12.9341L6.37 12.929ZM12.647 6.18904C12.6414 6.31138 12.5889 6.42685 12.5003 6.51144C12.4117 6.59603 12.294 6.64323 12.1715 6.64323C12.049 6.64323 11.9313 6.59603 11.8427 6.51144C11.7542 6.42685 11.7016 6.31138 11.696 6.18904V4.46704C9.84898 6.14404 8.056 7.72105 6.448 8.96005L10.99 3.81105H9.21399C9.0835 3.81105 8.95836 3.75921 8.86609 3.66695C8.77382 3.57468 8.72198 3.44953 8.72198 3.31905C8.72198 3.18856 8.77382 3.06341 8.86609 2.97115C8.95836 2.87888 9.0835 2.82704 9.21399 2.82704H12.214C12.2715 2.82691 12.3284 2.83811 12.3815 2.86002C12.4347 2.88192 12.483 2.91409 12.5237 2.95468C12.5644 2.99527 12.5966 3.0435 12.6187 3.09659C12.6407 3.14967 12.652 3.20657 12.652 3.26404L12.647 6.18904Z" fill="#DA1E37"/>
</svg>
