<svg width="35" height="35" viewBox="0 0 35 35" fill="none" xmlns="http://www.w3.org/2000/svg">
<path d="M34.815 32.422L25.279 22.835C27.5589 20.0843 28.6915 16.561 28.4417 12.9971C28.1918 9.43308 26.5787 6.10233 23.9373 3.69661C21.2959 1.2909 17.8293 -0.00485229 14.2576 0.0784921C10.6858 0.161837 7.28344 1.61787 4.75715 4.14417C2.23085 6.67047 0.774813 10.0728 0.691468 13.6446C0.608124 17.2163 1.90388 20.6829 4.30959 23.3243C6.7153 25.9657 10.0461 27.5788 13.61 27.8287C17.174 28.0785 20.6973 26.9459 23.448 24.666L33.035 34.202L34.815 32.422ZM3.23498 13.993C3.23518 11.745 3.90191 9.5476 5.15087 7.67853C6.39984 5.80945 8.17496 4.35267 10.2518 3.49236C12.3286 2.63206 14.6139 2.40686 16.8187 2.84525C19.0235 3.28364 21.0488 4.36592 22.6386 5.95526C24.2284 7.5446 25.3112 9.56964 25.7502 11.7743C26.1891 13.979 25.9645 16.2644 25.1048 18.3414C24.245 20.4185 22.7887 22.194 20.92 23.4434C19.0512 24.6929 16.8539 25.3602 14.606 25.361C13.1128 25.3615 11.6342 25.0679 10.2546 24.4968C8.87492 23.9257 7.62132 23.0884 6.56536 22.0327C5.5094 20.9771 4.67177 19.7237 4.10034 18.3442C3.5289 16.9647 3.23485 15.4862 3.23498 13.993V13.993Z" fill="#666666"/>
</svg>
